<?xml version="1.0" standalone="no"?>
<!DOCTYPE svg PUBLIC "-//W3C//DTD SVG 20010904//EN"
 "http://www.w3.org/TR/2001/REC-SVG-20010904/DTD/svg10.dtd">
<svg version="1.0" xmlns="http://www.w3.org/2000/svg"
 width="500.000000pt" height="500.000000pt" viewBox="0 0 500.000000 500.000000"
 preserveAspectRatio="xMidYMid meet">

<g transform="translate(0.000000,500.000000) scale(0.100000,-0.100000)"
fill="#000000" stroke="none">
<path d="M2377 2724 c-12 -13 -8 -42 8 -48 25 -9 46 5 43 28 -3 21 -37 34 -51
20z"/>
<path d="M3756 2704 c-19 -18 -20 -36 -4 -52 16 -16 38 3 38 34 0 30 -15 38
-34 18z"/>
<path d="M1060 2490 l0 -220 118 0 c148 0 208 16 262 70 22 22 43 54 49 72 8
27 9 18 10 -54 l1 -88 50 0 50 0 0 100 c0 94 2 103 25 125 15 16 36 25 55 25
29 0 30 1 30 46 l0 47 -36 -6 c-20 -3 -44 -13 -54 -22 -16 -15 -18 -14 -23 5
-4 16 -13 20 -51 20 l-46 0 0 -37 0 -38 -24 52 c-44 94 -115 122 -303 123
l-113 0 0 -220z m280 112 c78 -56 75 -176 -6 -228 -15 -11 -54 -19 -100 -22
l-74 -5 0 135 c0 74 3 138 8 142 13 14 145 -3 172 -22z"/>
<path d="M1940 2490 l0 -220 113 0 c121 1 166 12 221 53 72 55 95 168 53 259
-43 95 -116 128 -284 128 l-103 0 0 -220z m232 170 c44 -13 93 -52 113 -91 21
-40 19 -122 -5 -168 -32 -65 -78 -85 -197 -89 l-103 -4 0 181 0 181 78 0 c42
0 94 -5 114 -10z"/>
<path d="M3684 2697 c-7 -20 14 -59 29 -54 20 6 15 61 -6 65 -9 2 -20 -3 -23
-11z"/>
<path d="M3802 2651 c-18 -11 -11 -56 8 -56 17 0 27 42 13 56 -4 4 -14 4 -21
0z"/>
<path d="M3644 2635 c-9 -22 22 -53 37 -38 15 15 7 47 -14 51 -9 2 -20 -4 -23
-13z"/>
<path d="M3695 2586 c-29 -45 -18 -59 48 -59 32 1 61 3 64 6 3 4 -3 21 -14 39
-25 44 -74 51 -98 14z"/>
<path d="M2380 2435 c0 -158 1 -165 20 -165 19 0 20 7 20 165 0 158 -1 165
-20 165 -19 0 -20 -7 -20 -165z"/>
<path d="M2534 2586 c-88 -39 -118 -173 -57 -254 43 -57 143 -79 217 -48 41
17 52 32 36 51 -11 13 -16 12 -37 -5 -31 -24 -101 -27 -143 -5 -28 14 -60 60
-60 85 0 6 47 10 134 10 l134 0 6 -25 c3 -13 20 -40 37 -60 54 -61 158 -70
219 -18 l30 25 0 -35 c0 -83 -37 -118 -123 -118 -32 0 -69 7 -87 16 -18 9 -38
14 -46 11 -50 -19 43 -65 134 -66 74 0 115 18 142 63 18 29 20 51 20 210 0
170 -1 177 -20 177 -15 0 -20 -7 -20 -26 l0 -25 -32 22 c-44 32 -130 37 -178
11 -19 -10 -46 -35 -59 -55 l-24 -36 -16 31 c-9 17 -28 41 -43 51 -34 26 -122
33 -164 13z m152 -60 c19 -19 34 -43 34 -55 0 -20 -5 -21 -115 -21 -110 0
-115 1 -115 21 0 12 15 36 34 55 29 29 41 34 81 34 40 0 52 -5 81 -34z m330 2
c55 -55 38 -160 -31 -192 -53 -26 -107 -16 -152 26 -48 45 -37 143 21 179 45
29 128 22 162 -13z"/>
<path d="M3215 2586 c-42 -18 -83 -69 -91 -112 -20 -110 52 -204 158 -204 103
0 160 53 166 155 4 74 -18 120 -74 152 -45 26 -112 30 -159 9z m134 -41 c31
-16 61 -69 61 -109 0 -75 -53 -126 -129 -126 -110 0 -157 151 -70 224 35 30
93 35 138 11z"/>
<path d="M3836 2492 c-9 -28 3 -52 26 -52 16 0 19 6 16 32 -3 37 -33 51 -42
20z"/>
<path d="M3901 2482 c-8 -14 -6 -24 4 -38 15 -19 15 -19 30 1 9 11 14 26 13
35 -5 22 -35 24 -47 2z"/>
<path d="M3601 2471 c-14 -25 -3 -53 18 -49 10 2 16 13 16 32 0 35 -20 45 -34
17z"/>
<path d="M3533 2464 c-8 -20 8 -48 31 -52 11 -3 16 4 16 20 0 40 -35 63 -47
32z"/>
<path d="M3790 2425 c0 -28 25 -44 42 -27 7 7 6 17 -1 31 -16 30 -41 27 -41
-4z"/>
<path d="M3651 2422 c-7 -14 -7 -24 2 -37 12 -15 14 -15 26 -1 15 17 11 48 -6
53 -6 2 -16 -4 -22 -15z"/>
<path d="M3942 2428 c-7 -7 -12 -20 -12 -31 0 -32 44 -18 48 16 4 29 -14 37
-36 15z"/>
<path d="M3505 2400 c-9 -14 13 -50 30 -50 20 0 19 46 -1 54 -21 8 -22 8 -29
-4z"/>
<path d="M3845 2385 c-14 -13 -25 -33 -25 -45 0 -16 6 -20 38 -20 20 0 47 -3
60 -6 19 -5 22 -2 22 20 0 27 -39 76 -60 76 -6 0 -22 -11 -35 -25z"/>
<path d="M1712 2378 c-54 -27 -30 -108 33 -108 24 0 37 6 45 19 17 32 12 69
-12 85 -26 18 -34 19 -66 4z"/>
<path d="M3576 2371 c-9 -10 -18 -31 -19 -47 -2 -25 1 -29 23 -26 14 2 37 5
53 6 15 2 32 4 37 5 20 2 9 30 -21 55 -36 31 -50 32 -73 7z"/>
</g>
</svg>
